# xmcd
#
# Track frame offsets:
#	150
#	16012
#	30925
#	47655
#	63810
#	79875
#	95845
#	110650
#	125815
#	143397
#	161622
#	173300
#	187615
#	204887
#	221657
#
# Disc length: 3182 seconds
#
# Revision: 1
# Processed by: cddbd v1.5.1PL0 Copyright (c) Steve Scherf et al.
# Submitted via: audiograbber 1.82.02
#
DISCID=b50c6c0f
DTITLE=Various Artist - Sound Choice 8205 Country Hits Vol 40
DYEAR=1900
DGENRE=Karaoke
TTITLE0=Kim Richie - Just my luck
TTITLE1=Stacy Dean Campbell - Honey I do
TTITLE2=Jeff Carson - The car
TTITLE3=Pam Tillis  - Deep down
TTITLE4=Dolly Parton and Vince Gill - I will always love you
TTITLE5=Kim Richey - Those words we said
TTITLE6=Martina McBride - Cry on the shoulder of the road
TTITLE7=Doug Supernaw - Not enough hours in the night
TTITLE8=Lee Roy Parnell - When a woman loves a man
TTITLE9=Dwight Yoakam - Nothing
TTITLE10=Doug Stone - Born in the dark
TTITLE11=Clint Black - Life gets away
TTITLE12=John Berry - If I had any pride left at all
TTITLE13=Rhett Atkins - She said yes
TTITLE14=Mark Chesnutt - As the honky tonk turns
EXTD=
EXTT0=
EXTT1=
EXTT2=
EXTT3=
EXTT4=
EXTT5=
EXTT6=
EXTT7=
EXTT8=
EXTT9=
EXTT10=
EXTT11=
EXTT12=
EXTT13=
EXTT14=
PLAYORDER=
